{
.appVersion = "895";
copyright = "Copyright 2016 Google Inc. All Rights Reserved.";
customParameters = (
{
name = description;
value = "Data unhinted. Designed by Monotype design team.";
},
{
name = license;
value = "This Font Software is licensed under the SIL Open Font License, Version 1.1. This Font Software is distributed on an \"AS IS\" BASIS, WITHOUT WARRANTIES OR CONDITIONS OF ANY KIND, either express or implied. See the SIL Open Font License for the specific language, permissions and limitations governing your use of this Font Software.";
},
{
name = licenseURL;
value = "http://scripts.sil.org/OFL";
},
{
name = vendorID;
value = GOOG;
},
{
name = panose;
value = (
2,
11,
5,
2,
4,
5,
4,
2,
2,
4
);
},
{
name = unicodeRanges;
value = (
78
);
},
{
name = codePageRanges;
value = (
1252
);
}
);
date = "2016-11-10 14:21:53 +0000";
designer = "Monotype Design Team";
designerURL = "http://www.monotype.com/studio";
familyName = "Noto Sans Ogham";
fontMaster = (
{
ascender = 2189;
capHeight = 1968;
customParameters = (
{
name = typoAscender;
value = 2189;
},
{
name = typoDescender;
value = -600;
},
{
name = typoLineGap;
value = 0;
},
{
name = winAscent;
value = 2189;
},
{
name = winDescent;
value = 600;
},
{
name = hheaAscender;
value = 2189;
},
{
name = hheaDescender;
value = -600;
},
{
name = underlinePosition;
value = -205;
},
{
name = underlineThickness;
value = 102;
}
);
descender = -600;
id = "67047786-4FAF-4AC1-9508-D4600F0BB02B";
weightValue = 400;
widthValue = 5;
xHeight = 1377;
}
);
glyphs = (
{
glyphname = .notdef;
lastChange = "2016-11-10 14:21:38 +0000";
layers = (
{
layerId = "67047786-4FAF-4AC1-9508-D4600F0BB02B";
paths = (
{
closed = 1;
nodes = (
"1034 0 LINE",
"1034 1462 LINE",
"193 1462 LINE",
"193 0 LINE"
);
},
{
closed = 1;
nodes = (
"297 1358 LINE",
"930 1358 LINE",
"930 104 LINE",
"297 104 LINE"
);
}
);
width = 1229;
}
);
note = .notdef;
},
{
glyphname = uni1680;
lastChange = "2016-11-10 14:21:34 +0000";
layers = (
{
layerId = "67047786-4FAF-4AC1-9508-D4600F0BB02B";
paths = (
{
closed = 1;
nodes = (
"981 575 LINE",
"981 643 LINE",
"0 643 LINE",
"0 575 LINE"
);
}
);
width = 911;
}
);
note = uni1680;
unicode = 1680;
},
{
glyphname = uni1681;
lastChange = "2016-11-10 14:21:34 +0000";
layers = (
{
layerId = "67047786-4FAF-4AC1-9508-D4600F0BB02B";
paths = (
{
closed = 1;
nodes = (
"383 -205 LINE",
"383 575 LINE",
"686 575 LINE",
"686 643 LINE",
"0 643 LINE",
"0 575 LINE",
"233 575 LINE",
"233 -205 LINE"
);
}
);
width = 616;
}
);
note = uni1681;
unicode = 1681;
},
{
glyphname = uni1682;
lastChange = "2016-11-10 14:21:34 +0000";
layers = (
{
layerId = "67047786-4FAF-4AC1-9508-D4600F0BB02B";
paths = (
{
closed = 1;
nodes = (
"383 -205 LINE",
"383 575 LINE",
"528 575 LINE",
"528 -205 LINE",
"678 -205 LINE",
"678 575 LINE",
"981 575 LINE",
"981 643 LINE",
"0 643 LINE",
"0 575 LINE",
"233 575 LINE",
"233 -205 LINE"
);
}
);
width = 911;
}
);
note = uni1682;
unicode = 1682;
},
{
glyphname = uni1683;
lastChange = "2016-11-10 14:21:34 +0000";
layers = (
{
layerId = "67047786-4FAF-4AC1-9508-D4600F0BB02B";
paths = (
{
closed = 1;
nodes = (
"383 -205 LINE",
"383 575 LINE",
"528 575 LINE",
"528 -205 LINE",
"678 -205 LINE",
"678 575 LINE",
"823 575 LINE",
"823 -205 LINE",
"973 -205 LINE",
"973 575 LINE",
"1276 575 LINE",
"1276 643 LINE",
"0 643 LINE",
"0 575 LINE",
"233 575 LINE",
"233 -205 LINE"
);
}
);
width = 1206;
}
);
note = uni1683;
unicode = 1683;
},
{
glyphname = uni1684;
lastChange = "2016-11-10 14:21:34 +0000";
layers = (
{
layerId = "67047786-4FAF-4AC1-9508-D4600F0BB02B";
paths = (
{
closed = 1;
nodes = (
"383 -205 LINE",
"383 575 LINE",
"528 575 LINE",
"528 -205 LINE",
"678 -205 LINE",
"678 575 LINE",
"823 575 LINE",
"823 -205 LINE",
"973 -205 LINE",
"973 575 LINE",
"1118 575 LINE",
"1118 -205 LINE",
"1268 -205 LINE",
"1268 575 LINE",
"1571 575 LINE",
"1571 643 LINE",
"0 643 LINE",
"0 575 LINE",
"233 575 LINE",
"233 -205 LINE"
);
}
);
width = 1501;
}
);
note = uni1684;
unicode = 1684;
},
{
glyphname = uni1685;
lastChange = "2016-11-10 14:21:34 +0000";
layers = (
{
layerId = "67047786-4FAF-4AC1-9508-D4600F0BB02B";
paths = (
{
closed = 1;
nodes = (
"383 -205 LINE",
"383 575 LINE",
"528 575 LINE",
"528 -205 LINE",
"678 -205 LINE",
"678 575 LINE",
"823 575 LINE",
"823 -205 LINE",
"973 -205 LINE",
"973 575 LINE",
"1118 575 LINE",
"1118 -205 LINE",
"1268 -205 LINE",
"1268 575 LINE",
"1413 575 LINE",
"1413 -205 LINE",
"1563 -205 LINE",
"1563 575 LINE",
"1866 575 LINE",
"1866 643 LINE",
"0 643 LINE",
"0 575 LINE",
"233 575 LINE",
"233 -205 LINE"
);
}
);
width = 1796;
}
);
note = uni1685;
unicode = 1685;
},
{
glyphname = uni1686;
lastChange = "2016-11-10 14:21:34 +0000";
layers = (
{
layerId = "67047786-4FAF-4AC1-9508-D4600F0BB02B";
paths = (
{
closed = 1;
nodes = (
"686 575 LINE",
"686 643 LINE",
"383 643 LINE",
"383 1423 LINE",
"233 1423 LINE",
"233 643 LINE",
"0 643 LINE",
"0 575 LINE"
);
}
);
width = 616;
}
);
note = uni1686;
unicode = 1686;
},
{
glyphname = uni1687;
lastChange = "2016-11-10 14:21:34 +0000";
layers = (
{
layerId = "67047786-4FAF-4AC1-9508-D4600F0BB02B";
paths = (
{
closed = 1;
nodes = (
"981 575 LINE",
"981 643 LINE",
"678 643 LINE",
"678 1423 LINE",
"528 1423 LINE",
"528 643 LINE",
"383 643 LINE",
"383 1423 LINE",
"233 1423 LINE",
"233 643 LINE",
"0 643 LINE",
"0 575 LINE"
);
}
);
width = 911;
}
);
note = uni1687;
unicode = 1687;
},
{
glyphname = uni1688;
lastChange = "2016-11-10 14:21:34 +0000";
layers = (
{
layerId = "67047786-4FAF-4AC1-9508-D4600F0BB02B";
paths = (
{
closed = 1;
nodes = (
"1276 575 LINE",
"1276 643 LINE",
"973 643 LINE",
"973 1423 LINE",
"823 1423 LINE",
"823 643 LINE",
"678 643 LINE",
"678 1423 LINE",
"528 1423 LINE",
"528 643 LINE",
"383 643 LINE",
"383 1423 LINE",
"233 1423 LINE",
"233 643 LINE",
"0 643 LINE",
"0 575 LINE"
);
}
);
width = 1206;
}
);
note = uni1688;
unicode = 1688;
},
{
glyphname = uni1689;
lastChange = "2016-11-10 14:21:34 +0000";
layers = (
{
layerId = "67047786-4FAF-4AC1-9508-D4600F0BB02B";
paths = (
{
closed = 1;
nodes = (
"1571 575 LINE",
"1571 643 LINE",
"1268 643 LINE",
"1268 1423 LINE",
"1118 1423 LINE",
"1118 643 LINE",
"973 643 LINE",
"973 1423 LINE",
"823 1423 LINE",
"823 643 LINE",
"678 643 LINE",
"678 1423 LINE",
"528 1423 LINE",
"528 643 LINE",
"383 643 LINE",
"383 1423 LINE",
"233 1423 LINE",
"233 643 LINE",
"0 643 LINE",
"0 575 LINE"
);
}
);
width = 1501;
}
);
note = uni1689;
unicode = 1689;
},
{
glyphname = uni168A;
lastChange = "2016-11-10 14:21:34 +0000";
layers = (
{
layerId = "67047786-4FAF-4AC1-9508-D4600F0BB02B";
paths = (
{
closed = 1;
nodes = (
"1866 575 LINE",
"1866 643 LINE",
"1563 643 LINE",
"1563 1423 LINE",
"1413 1423 LINE",
"1413 643 LINE",
"1268 643 LINE",
"1268 1423 LINE",
"1118 1423 LINE",
"1118 643 LINE",
"973 643 LINE",
"973 1423 LINE",
"823 1423 LINE",
"823 643 LINE",
"678 643 LINE",
"678 1423 LINE",
"528 1423 LINE",
"528 643 LINE",
"383 643 LINE",
"383 1423 LINE",
"233 1423 LINE",
"233 643 LINE",
"0 643 LINE",
"0 575 LINE"
);
}
);
width = 1796;
}
);
note = uni168A;
unicode = 168A;
},
{
glyphname = uni168B;
lastChange = "2016-11-10 14:21:34 +0000";
layers = (
{
layerId = "67047786-4FAF-4AC1-9508-D4600F0BB02B";
paths = (
{
closed = 1;
nodes = (
"180 -205 LINE",
"375 575 LINE",
"686 575 LINE",
"686 643 LINE",
"391 643 LINE",
"588 1423 LINE",
"438 1423 LINE",
"242 643 LINE",
"0 643 LINE",
"0 575 LINE",
"225 575 LINE",
"31 -205 LINE"
);
}
);
width = 616;
}
);
note = uni168B;
unicode = 168B;
},
{
glyphname = uni168C;
lastChange = "2016-11-10 14:21:34 +0000";
layers = (
{
layerId = "67047786-4FAF-4AC1-9508-D4600F0BB02B";
paths = (
{
closed = 1;
nodes = (
"180 -205 LINE",
"375 575 LINE",
"520 575 LINE",
"326 -205 LINE",
"475 -205 LINE",
"670 575 LINE",
"981 575 LINE",
"981 643 LINE",
"686 643 LINE",
"883 1423 LINE",
"733 1423 LINE",
"537 643 LINE",
"391 643 LINE",
"588 1423 LINE",
"438 1423 LINE",
"242 643 LINE",
"0 643 LINE",
"0 575 LINE",
"225 575 LINE",
"31 -205 LINE"
);
}
);
width = 911;
}
);
note = uni168C;
unicode = 168C;
},
{
glyphname = uni168D;
lastChange = "2016-11-10 14:21:34 +0000";
layers = (
{
layerId = "67047786-4FAF-4AC1-9508-D4600F0BB02B";
paths = (
{
closed = 1;
nodes = (
"180 -205 LINE",
"375 575 LINE",
"520 575 LINE",
"326 -205 LINE",
"475 -205 LINE",
"670 575 LINE",
"815 575 LINE",
"621 -205 LINE",
"770 -205 LINE",
"965 575 LINE",
"1276 575 LINE",
"1276 643 LINE",
"981 643 LINE",
"1178 1423 LINE",
"1028 1423 LINE",
"831 643 LINE",
"686 643 LINE",
"883 1423 LINE",
"733 1423 LINE",
"537 643 LINE",
"391 643 LINE",
"588 1423 LINE",
"438 1423 LINE",
"242 643 LINE",
"0 643 LINE",
"0 575 LINE",
"225 575 LINE",
"31 -205 LINE"
);
}
);
width = 1206;
}
);
note = uni168D;
unicode = 168D;
},
{
glyphname = uni168E;
lastChange = "2016-11-10 14:21:34 +0000";
layers = (
{
layerId = "67047786-4FAF-4AC1-9508-D4600F0BB02B";
paths = (
{
closed = 1;
nodes = (
"180 -205 LINE",
"375 575 LINE",
"520 575 LINE",
"326 -205 LINE",
"475 -205 LINE",
"670 575 LINE",
"815 575 LINE",
"621 -205 LINE",
"770 -205 LINE",
"965 575 LINE",
"1110 575 LINE",
"915 -205 LINE",
"1065 -205 LINE",
"1260 575 LINE",
"1571 575 LINE",
"1571 643 LINE",
"1276 643 LINE",
"1473 1423 LINE",
"1323 1423 LINE",
"1126 643 LINE",
"981 643 LINE",
"1178 1423 LINE",
"1028 1423 LINE",
"831 643 LINE",
"686 643 LINE",
"883 1423 LINE",
"733 1423 LINE",
"537 643 LINE",
"391 643 LINE",
"588 1423 LINE",
"438 1423 LINE",
"242 643 LINE",
"0 643 LINE",
"0 575 LINE",
"225 575 LINE",
"31 -205 LINE"
);
}
);
width = 1501;
}
);
note = uni168E;
unicode = 168E;
},
{
glyphname = uni168F;
lastChange = "2016-11-10 14:21:34 +0000";
layers = (
{
layerId = "67047786-4FAF-4AC1-9508-D4600F0BB02B";
paths = (
{
closed = 1;
nodes = (
"180 -205 LINE",
"375 575 LINE",
"520 575 LINE",
"326 -205 LINE",
"475 -205 LINE",
"670 575 LINE",
"815 575 LINE",
"621 -205 LINE",
"770 -205 LINE",
"965 575 LINE",
"1110 575 LINE",
"915 -205 LINE",
"1065 -205 LINE",
"1260 575 LINE",
"1405 575 LINE",
"1210 -205 LINE",
"1360 -205 LINE",
"1554 575 LINE",
"1866 575 LINE",
"1866 643 LINE",
"1571 643 LINE",
"1767 1423 LINE",
"1618 1423 LINE",
"1421 643 LINE",
"1276 643 LINE",
"1473 1423 LINE",
"1323 1423 LINE",
"1126 643 LINE",
"981 643 LINE",
"1178 1423 LINE",
"1028 1423 LINE",
"831 643 LINE",
"686 643 LINE",
"883 1423 LINE",
"733 1423 LINE",
"537 643 LINE",
"391 643 LINE",
"588 1423 LINE",
"438 1423 LINE",
"242 643 LINE",
"0 643 LINE",
"0 575 LINE",
"225 575 LINE",
"31 -205 LINE"
);
}
);
width = 1796;
}
);
note = uni168F;
unicode = 168F;
},
{
glyphname = uni1690;
lastChange = "2016-11-10 14:21:34 +0000";
layers = (
{
layerId = "67047786-4FAF-4AC1-9508-D4600F0BB02B";
paths = (
{
closed = 1;
nodes = (
"459 575 LINE",
"686 575 LINE",
"686 643 LINE",
"459 643 LINE",
"309 791 LINE",
"158 643 LINE",
"0 643 LINE",
"0 575 LINE",
"158 575 LINE",
"309 430 LINE"
);
}
);
width = 616;
}
);
note = uni1690;
unicode = 1690;
},
{
glyphname = uni1691;
lastChange = "2016-11-10 14:21:34 +0000";
layers = (
{
layerId = "67047786-4FAF-4AC1-9508-D4600F0BB02B";
paths = (
{
closed = 1;
nodes = (
"455 571 LINE",
"604 430 LINE",
"754 575 LINE",
"981 575 LINE",
"981 643 LINE",
"754 643 LINE",
"604 791 LINE",
"455 645 LINE",
"309 791 LINE",
"158 643 LINE",
"0 643 LINE",
"0 575 LINE",
"158 575 LINE",
"309 430 LINE"
);
}
);
width = 911;
}
);
note = uni1691;
unicode = 1691;
},
{
glyphname = uni1692;
lastChange = "2016-11-10 14:21:34 +0000";
layers = (
{
layerId = "67047786-4FAF-4AC1-9508-D4600F0BB02B";
paths = (
{
closed = 1;
nodes = (
"455 571 LINE",
"604 430 LINE",
"750 571 LINE",
"899 430 LINE",
"1049 575 LINE",
"1276 575 LINE",
"1276 643 LINE",
"1049 643 LINE",
"899 791 LINE",
"750 645 LINE",
"604 791 LINE",
"455 645 LINE",
"309 791 LINE",
"158 643 LINE",
"0 643 LINE",
"0 575 LINE",
"158 575 LINE",
"309 430 LINE"
);
}
);
width = 1206;
}
);
note = uni1692;
unicode = 1692;
},
{
glyphname = uni1693;
lastChange = "2016-11-10 14:21:34 +0000";
layers = (
{
layerId = "67047786-4FAF-4AC1-9508-D4600F0BB02B";
paths = (
{
closed = 1;
nodes = (
"455 571 LINE",
"604 430 LINE",
"750 571 LINE",
"899 430 LINE",
"1044 571 LINE",
"1194 430 LINE",
"1343 575 LINE",
"1571 575 LINE",
"1571 643 LINE",
"1343 643 LINE",
"1194 791 LINE",
"1044 645 LINE",
"899 791 LINE",
"750 645 LINE",
"604 791 LINE",
"455 645 LINE",
"309 791 LINE",
"158 643 LINE",
"0 643 LINE",
"0 575 LINE",
"158 575 LINE",
"309 430 LINE"
);
}
);
width = 1501;
}
);
note = uni1693;
unicode = 1693;
},
{
glyphname = uni1694;
lastChange = "2016-11-10 14:21:34 +0000";
layers = (
{
layerId = "67047786-4FAF-4AC1-9508-D4600F0BB02B";
paths = (
{
closed = 1;
nodes = (
"455 571 LINE",
"604 430 LINE",
"750 571 LINE",
"899 430 LINE",
"1044 571 LINE",
"1194 430 LINE",
"1339 571 LINE",
"1489 430 LINE",
"1638 575 LINE",
"1866 575 LINE",
"1866 643 LINE",
"1638 643 LINE",
"1489 791 LINE",
"1339 645 LINE",
"1194 791 LINE",
"1044 645 LINE",
"899 791 LINE",
"750 645 LINE",
"604 791 LINE",
"455 645 LINE",
"309 791 LINE",
"158 643 LINE",
"0 643 LINE",
"0 575 LINE",
"158 575 LINE",
"309 430 LINE"
);
}
);
width = 1796;
}
);
note = uni1694;
unicode = 1694;
},
{
glyphname = uni1695;
lastChange = "2016-11-10 14:21:34 +0000";
layers = (
{
layerId = "67047786-4FAF-4AC1-9508-D4600F0BB02B";
paths = (
{
closed = 1;
nodes = (
"180 -205 LINE",
"307 307 LINE",
"436 -205 LINE",
"586 -205 LINE",
"389 575 LINE",
"686 575 LINE",
"686 643 LINE",
"391 643 LINE",
"588 1423 LINE",
"438 1423 LINE",
"307 905 LINE",
"178 1423 LINE",
"29 1423 LINE",
"223 643 LINE",
"0 643 LINE",
"0 575 LINE",
"225 575 LINE",
"31 -205 LINE"
);
}
);
width = 616;
}
);
note = uni1695;
unicode = 1695;
},
{
glyphname = uni1696;
lastChange = "2016-11-10 14:21:34 +0000";
layers = (
{
layerId = "67047786-4FAF-4AC1-9508-D4600F0BB02B";
paths = (
{
closed = 1;
nodes = (
"883 575 LINE",
"981 575 LINE",
"981 643 LINE",
"883 643 LINE",
"457 1423 LINE",
"29 643 LINE",
"0 643 LINE",
"0 575 LINE",
"29 575 LINE",
"457 -205 LINE"
);
},
{
closed = 1;
nodes = (
"178 575 LINE",
"735 575 LINE",
"457 66 LINE"
);
},
{
closed = 1;
nodes = (
"457 1153 LINE",
"735 643 LINE",
"178 643 LINE"
);
}
);
width = 911;
}
);
note = uni1696;
unicode = 1696;
},
{
glyphname = uni1697;
lastChange = "2016-11-10 14:21:34 +0000";
layers = (
{
layerId = "67047786-4FAF-4AC1-9508-D4600F0BB02B";
paths = (
{
closed = 1;
nodes = (
"973 -205 LINE",
"973 317 LINE",
"602 317 LINE",
"602 168 LINE",
"823 168 LINE",
"823 -55 LINE",
"383 -55 LINE",
"383 575 LINE",
"1276 575 LINE",
"1276 643 LINE",
"0 643 LINE",
"0 575 LINE",
"233 575 LINE",
"233 -205 LINE"
);
}
);
width = 1206;
}
);
note = uni1697;
unicode = 1697;
},
{
glyphname = uni1698;
lastChange = "2016-11-10 14:21:34 +0000";
layers = (
{
layerId = "67047786-4FAF-4AC1-9508-D4600F0BB02B";
paths = (
{
closed = 1;
nodes = (
"205 -205 LINE",
"444 102 LINE",
"526 -2 LINE",
"369 -205 LINE",
"522 -205 LINE",
"604 -100 LINE",
"686 -205 LINE",
"840 -205 LINE",
"680 -2 LINE",
"762 102 LINE",
"1004 -205 LINE",
"1157 -205 LINE",
"840 201 LINE",
"1133 575 LINE",
"1276 575 LINE",
"1276 643 LINE",
"0 643 LINE",
"0 575 LINE",
"74 575 LINE",
"369 201 LINE",
"51 -205 LINE"
);
},
{
closed = 1;
nodes = (
"522 201 LINE",
"604 305 LINE",
"686 201 LINE",
"604 96 LINE"
);
},
{
closed = 1;
nodes = (
"227 575 LINE",
"391 575 LINE",
"526 403 LINE",
"444 299 LINE"
);
},
{
closed = 1;
nodes = (
"545 575 LINE",
"662 575 LINE",
"604 500 LINE"
);
},
{
closed = 1;
nodes = (
"680 401 LINE",
"815 575 LINE",
"979 575 LINE",
"762 297 LINE"
);
}
);
width = 1206;
}
);
note = uni1698;
unicode = 1698;
},
{
glyphname = uni1699;
lastChange = "2016-11-10 14:21:34 +0000";
layers = (
{
layerId = "67047786-4FAF-4AC1-9508-D4600F0BB02B";
paths = (
{
closed = 1;
nodes = (
"1571 575 LINE",
"1571 643 LINE",
"1268 643 LINE",
"1268 788 LINE",
"1413 788 LINE",
"1413 938 LINE",
"1268 938 LINE",
"1268 1083 LINE",
"1413 1083 LINE",
"1413 1233 LINE",
"1268 1233 LINE",
"1268 1378 LINE",
"1413 1378 LINE",
"1413 1528 LINE",
"1268 1528 LINE",
"1268 1673 LINE",
"1413 1673 LINE",
"1413 1823 LINE",
"1268 1823 LINE",
"1268 1968 LINE",
"1118 1968 LINE",
"1118 1823 LINE",
"973 1823 LINE",
"973 1968 LINE",
"823 1968 LINE",
"823 1823 LINE",
"678 1823 LINE",
"678 1968 LINE",
"528 1968 LINE",
"528 1823 LINE",
"383 1823 LINE",
"383 1968 LINE",
"233 1968 LINE",
"233 1823 LINE",
"88 1823 LINE",
"88 1673 LINE",
"233 1673 LINE",
"233 1528 LINE",
"88 1528 LINE",
"88 1378 LINE",
"233 1378 LINE",
"233 1233 LINE",
"88 1233 LINE",
"88 1083 LINE",
"233 1083 LINE",
"233 938 LINE",
"88 938 LINE",
"88 788 LINE",
"233 788 LINE",
"233 643 LINE",
"0 643 LINE",
"0 575 LINE"
);
},
{
closed = 1;
nodes = (
"383 788 LINE",
"528 788 LINE",
"528 643 LINE",
"383 643 LINE"
);
},
{
closed = 1;
nodes = (
"383 1083 LINE",
"528 1083 LINE",
"528 938 LINE",
"383 938 LINE"
);
},
{
closed = 1;
nodes = (
"678 788 LINE",
"823 788 LINE",
"823 643 LINE",
"678 643 LINE"
);
},
{
closed = 1;
nodes = (
"973 788 LINE",
"1118 788 LINE",
"1118 643 LINE",
"973 643 LINE"
);
},
{
closed = 1;
nodes = (
"678 1083 LINE",
"823 1083 LINE",
"823 938 LINE",
"678 938 LINE"
);
},
{
closed = 1;
nodes = (
"383 1378 LINE",
"528 1378 LINE",
"528 1233 LINE",
"383 1233 LINE"
);
},
{
closed = 1;
nodes = (
"383 1673 LINE",
"528 1673 LINE",
"528 1528 LINE",
"383 1528 LINE"
);
},
{
closed = 1;
nodes = (
"973 1083 LINE",
"1118 1083 LINE",
"1118 938 LINE",
"973 938 LINE"
);
},
{
closed = 1;
nodes = (
"678 1378 LINE",
"823 1378 LINE",
"823 1233 LINE",
"678 1233 LINE"
);
},
{
closed = 1;
nodes = (
"678 1673 LINE",
"823 1673 LINE",
"823 1528 LINE",
"678 1528 LINE"
);
},
{
closed = 1;
nodes = (
"973 1378 LINE",
"1118 1378 LINE",
"1118 1233 LINE",
"973 1233 LINE"
);
},
{
closed = 1;
nodes = (
"973 1673 LINE",
"1118 1673 LINE",
"1118 1528 LINE",
"973 1528 LINE"
);
}
);
width = 1501;
}
);
note = uni1699;
unicode = 1699;
},
{
glyphname = uni169A;
lastChange = "2016-11-10 14:21:34 +0000";
layers = (
{
layerId = "67047786-4FAF-4AC1-9508-D4600F0BB02B";
paths = (
{
closed = 1;
nodes = (
"1014 354 LINE",
"1014 504 LINE",
"193 504 LINE",
"193 354 LINE"
);
},
{
closed = 1;
nodes = (
"1276 575 LINE",
"1276 643 LINE",
"0 643 LINE",
"0 575 LINE"
);
}
);
width = 1206;
}
);
note = uni169A;
unicode = 169A;
},
{
glyphname = uni169B;
lastChange = "2016-11-10 14:21:34 +0000";
layers = (
{
layerId = "67047786-4FAF-4AC1-9508-D4600F0BB02B";
paths = (
{
closed = 1;
nodes = (
"150 -205 LINE",
"602 575 LINE",
"1002 575 LINE",
"1002 643 LINE",
"602 643 LINE",
"150 1423 LINE",
"0 1423 LINE",
"471 610 LINE",
"0 -205 LINE"
);
}
);
width = 932;
}
);
note = uni169B;
unicode = 169B;
},
{
glyphname = uni169C;
lastChange = "2016-11-10 14:21:34 +0000";
layers = (
{
layerId = "67047786-4FAF-4AC1-9508-D4600F0BB02B";
paths = (
{
closed = 1;
nodes = (
"932 -205 LINE",
"461 610 LINE",
"932 1423 LINE",
"782 1423 LINE",
"330 643 LINE",
"0 643 LINE",
"0 575 LINE",
"330 575 LINE",
"782 -205 LINE"
);
}
